<svg width="39" height="15" viewBox="0 0 39 15" fill="none" xmlns="http://www.w3.org/2000/svg">
<path d="M1.968 9.984C1.968 10.168 2.004 10.328 2.076 10.464C2.156 10.592 2.256 10.7 2.376 10.788C2.496 10.868 2.632 10.928 2.784 10.968C2.944 11.008 3.108 11.028 3.276 11.028C3.396 11.028 3.52 11.016 3.648 10.992C3.784 10.96 3.904 10.916 4.008 10.86C4.12 10.796 4.212 10.716 4.284 10.62C4.356 10.516 4.392 10.388 4.392 10.236C4.392 9.98 4.22 9.788 3.876 9.66C3.54 9.532 3.068 9.404 2.46 9.276C2.212 9.22 1.968 9.156 1.728 9.084C1.496 9.004 1.288 8.904 1.104 8.784C0.92 8.656 0.772 8.5 0.66 8.316C0.548 8.124 0.492 7.892 0.492 7.62C0.492 7.22 0.568 6.892 0.72 6.636C0.88 6.38 1.088 6.18 1.344 6.036C1.6 5.884 1.888 5.78 2.208 5.724C2.528 5.66 2.856 5.628 3.192 5.628C3.528 5.628 3.852 5.66 4.164 5.724C4.484 5.788 4.768 5.896 5.016 6.048C5.264 6.2 5.468 6.404 5.628 6.66C5.796 6.908 5.896 7.224 5.928 7.608H4.308C4.284 7.28 4.16 7.06 3.936 6.948C3.712 6.828 3.448 6.768 3.144 6.768C3.048 6.768 2.944 6.776 2.832 6.792C2.72 6.8 2.616 6.824 2.52 6.864C2.432 6.904 2.356 6.964 2.292 7.044C2.228 7.116 2.196 7.216 2.196 7.344C2.196 7.496 2.252 7.62 2.364 7.716C2.476 7.812 2.62 7.892 2.796 7.956C2.98 8.012 3.188 8.064 3.42 8.112C3.652 8.16 3.888 8.212 4.128 8.268C4.376 8.324 4.616 8.392 4.848 8.472C5.088 8.552 5.3 8.66 5.484 8.796C5.668 8.924 5.816 9.088 5.928 9.288C6.04 9.48 6.096 9.72 6.096 10.008C6.096 10.416 6.012 10.76 5.844 11.04C5.684 11.312 5.472 11.532 5.208 11.7C4.944 11.868 4.64 11.984 4.296 12.048C3.96 12.12 3.616 12.156 3.264 12.156C2.904 12.156 2.552 12.12 2.208 12.048C1.864 11.976 1.556 11.856 1.284 11.688C1.02 11.52 0.8 11.3 0.624 11.028C0.456 10.748 0.364 10.4 0.348 9.984H1.968ZM8.95331 12.768C8.76931 13.272 8.51331 13.632 8.18531 13.848C7.85731 14.064 7.40131 14.172 6.81731 14.172C6.64131 14.172 6.46531 14.164 6.28931 14.148C6.12131 14.14 5.94931 14.128 5.77331 14.112V12.708C5.93331 12.724 6.09731 12.74 6.26531 12.756C6.43331 12.772 6.60131 12.776 6.76931 12.768C6.99331 12.744 7.15731 12.656 7.26131 12.504C7.37331 12.352 7.42931 12.184 7.42931 12C7.42931 11.864 7.40531 11.736 7.35731 11.616L5.18531 5.796H6.99731L8.40131 10.044H8.42531L9.78131 5.796H11.5453L8.95331 12.768ZM12.236 9.984C12.236 10.168 12.272 10.328 12.344 10.464C12.424 10.592 12.524 10.7 12.644 10.788C12.764 10.868 12.9 10.928 13.052 10.968C13.212 11.008 13.376 11.028 13.544 11.028C13.664 11.028 13.788 11.016 13.916 10.992C14.052 10.96 14.172 10.916 14.276 10.86C14.388 10.796 14.48 10.716 14.552 10.62C14.624 10.516 14.66 10.388 14.66 10.236C14.66 9.98 14.488 9.788 14.144 9.66C13.808 9.532 13.336 9.404 12.728 9.276C12.48 9.22 12.236 9.156 11.996 9.084C11.764 9.004 11.556 8.904 11.372 8.784C11.188 8.656 11.04 8.5 10.928 8.316C10.816 8.124 10.76 7.892 10.76 7.62C10.76 7.22 10.836 6.892 10.988 6.636C11.148 6.38 11.356 6.18 11.612 6.036C11.868 5.884 12.156 5.78 12.476 5.724C12.796 5.66 13.124 5.628 13.46 5.628C13.796 5.628 14.12 5.66 14.432 5.724C14.752 5.788 15.036 5.896 15.284 6.048C15.532 6.2 15.736 6.404 15.896 6.66C16.064 6.908 16.164 7.224 16.196 7.608H14.576C14.552 7.28 14.428 7.06 14.204 6.948C13.98 6.828 13.716 6.768 13.412 6.768C13.316 6.768 13.212 6.776 13.1 6.792C12.988 6.8 12.884 6.824 12.788 6.864C12.7 6.904 12.624 6.964 12.56 7.044C12.496 7.116 12.464 7.216 12.464 7.344C12.464 7.496 12.52 7.62 12.632 7.716C12.744 7.812 12.888 7.892 13.064 7.956C13.248 8.012 13.456 8.064 13.688 8.112C13.92 8.16 14.156 8.212 14.396 8.268C14.644 8.324 14.884 8.392 15.116 8.472C15.356 8.552 15.568 8.66 15.752 8.796C15.936 8.924 16.084 9.088 16.196 9.288C16.308 9.48 16.364 9.72 16.364 10.008C16.364 10.416 16.28 10.76 16.112 11.04C15.952 11.312 15.74 11.532 15.476 11.7C15.212 11.868 14.908 11.984 14.564 12.048C14.228 12.12 13.884 12.156 13.532 12.156C13.172 12.156 12.82 12.12 12.476 12.048C12.132 11.976 11.824 11.856 11.552 11.688C11.288 11.52 11.068 11.3 10.892 11.028C10.724 10.748 10.632 10.4 10.616 9.984H12.236ZM18.3213 5.796H19.5693V6.936H18.3213V10.008C18.3213 10.296 18.3693 10.488 18.4653 10.584C18.5613 10.68 18.7533 10.728 19.0413 10.728C19.1373 10.728 19.2293 10.724 19.3173 10.716C19.4053 10.708 19.4893 10.696 19.5693 10.68V12C19.4253 12.024 19.2653 12.04 19.0893 12.048C18.9133 12.056 18.7413 12.06 18.5733 12.06C18.3093 12.06 18.0573 12.04 17.8173 12C17.5853 11.968 17.3773 11.9 17.1933 11.796C17.0173 11.692 16.8773 11.544 16.7733 11.352C16.6693 11.16 16.6173 10.908 16.6173 10.596V6.936H15.5853V5.796H16.6173V3.936H18.3213V5.796Z" fill="white" fill-opacity="0.9"/>
<path d="M21.5115 8.232C21.4315 7.8 21.2875 7.472 21.0795 7.248C20.8795 7.024 20.5715 6.912 20.1555 6.912C19.8835 6.912 19.6555 6.96 19.4715 7.056C19.2955 7.144 19.1515 7.256 19.0395 7.392C18.9355 7.528 18.8595 7.672 18.8115 7.824C18.7715 7.976 18.7475 8.112 18.7395 8.232H21.5115ZM18.7395 9.312C18.7635 9.864 18.9035 10.264 19.1595 10.512C19.4155 10.76 19.7835 10.884 20.2635 10.884C20.6075 10.884 20.9035 10.8 21.1515 10.632C21.3995 10.456 21.5515 10.272 21.6075 10.08H23.1075C22.8675 10.824 22.4995 11.356 22.0035 11.676C21.5075 11.996 20.9075 12.156 20.2035 12.156C19.7155 12.156 19.2755 12.08 18.8835 11.928C18.4915 11.768 18.1595 11.544 17.8875 11.256C17.6155 10.968 17.4035 10.624 17.2515 10.224C17.1075 9.824 17.0355 9.384 17.0355 8.904C17.0355 8.44 17.1115 8.008 17.2635 7.608C17.4155 7.208 17.6315 6.864 17.9115 6.576C18.1915 6.28 18.5235 6.048 18.9075 5.88C19.2995 5.712 19.7315 5.628 20.2035 5.628C20.7315 5.628 21.1915 5.732 21.5835 5.94C21.9755 6.14 22.2955 6.412 22.5435 6.756C22.7995 7.1 22.9835 7.492 23.0955 7.932C23.2075 8.372 23.2475 8.832 23.2155 9.312H18.7395ZM22.8341 5.796H24.4421V6.636H24.4661C24.6901 6.316 24.9581 6.068 25.2701 5.892C25.5901 5.716 25.9541 5.628 26.3621 5.628C26.7541 5.628 27.1101 5.704 27.4301 5.856C27.7581 6.008 28.0061 6.276 28.1741 6.66C28.3581 6.388 28.6061 6.148 28.9181 5.94C29.2381 5.732 29.6141 5.628 30.0461 5.628C30.3741 5.628 30.6781 5.668 30.9581 5.748C31.2381 5.828 31.4781 5.956 31.6781 6.132C31.8781 6.308 32.0341 6.54 32.1461 6.828C32.2581 7.108 32.3141 7.448 32.3141 7.848V12H30.6101V8.484C30.6101 8.276 30.6021 8.08 30.5861 7.896C30.5701 7.712 30.5261 7.552 30.4541 7.416C30.3821 7.28 30.2741 7.172 30.1301 7.092C29.9941 7.012 29.8061 6.972 29.5661 6.972C29.3261 6.972 29.1301 7.02 28.9781 7.116C28.8341 7.204 28.7181 7.324 28.6301 7.476C28.5501 7.62 28.4941 7.788 28.4621 7.98C28.4381 8.164 28.4261 8.352 28.4261 8.544V12H26.7221V8.52C26.7221 8.336 26.7181 8.156 26.7101 7.98C26.7021 7.796 26.6661 7.628 26.6021 7.476C26.5461 7.324 26.4461 7.204 26.3021 7.116C26.1661 7.02 25.9621 6.972 25.6901 6.972C25.6101 6.972 25.5021 6.992 25.3661 7.032C25.2381 7.064 25.1101 7.132 24.9821 7.236C24.8621 7.332 24.7581 7.476 24.6701 7.668C24.5821 7.852 24.5381 8.096 24.5381 8.4V12H22.8341V5.796ZM33.5411 9.984C33.5411 10.168 33.5771 10.328 33.6491 10.464C33.7291 10.592 33.8291 10.7 33.9491 10.788C34.0691 10.868 34.2051 10.928 34.3571 10.968C34.5171 11.008 34.6811 11.028 34.8491 11.028C34.9691 11.028 35.0931 11.016 35.2211 10.992C35.3571 10.96 35.4771 10.916 35.5811 10.86C35.6931 10.796 35.7851 10.716 35.8571 10.62C35.9291 10.516 35.9651 10.388 35.9651 10.236C35.9651 9.98 35.7931 9.788 35.4491 9.66C35.1131 9.532 34.6411 9.404 34.0331 9.276C33.7851 9.22 33.5411 9.156 33.3011 9.084C33.0691 9.004 32.8611 8.904 32.6771 8.784C32.4931 8.656 32.3451 8.5 32.2331 8.316C32.1211 8.124 32.0651 7.892 32.0651 7.62C32.0651 7.22 32.1411 6.892 32.2931 6.636C32.4531 6.38 32.6611 6.18 32.9171 6.036C33.1731 5.884 33.4611 5.78 33.7811 5.724C34.1011 5.66 34.4291 5.628 34.7651 5.628C35.1011 5.628 35.4251 5.66 35.7371 5.724C36.0571 5.788 36.3411 5.896 36.5891 6.048C36.8371 6.2 37.0411 6.404 37.2011 6.66C37.3691 6.908 37.4691 7.224 37.5011 7.608H35.8811C35.8571 7.28 35.7331 7.06 35.5091 6.948C35.2851 6.828 35.0211 6.768 34.7171 6.768C34.6211 6.768 34.5171 6.776 34.4051 6.792C34.2931 6.8 34.1891 6.824 34.0931 6.864C34.0051 6.904 33.9291 6.964 33.8651 7.044C33.8011 7.116 33.7691 7.216 33.7691 7.344C33.7691 7.496 33.8251 7.62 33.9371 7.716C34.0491 7.812 34.1931 7.892 34.3691 7.956C34.5531 8.012 34.7611 8.064 34.9931 8.112C35.2251 8.16 35.4611 8.212 35.7011 8.268C35.9491 8.324 36.1891 8.392 36.4211 8.472C36.6611 8.552 36.8731 8.66 37.0571 8.796C37.2411 8.924 37.3891 9.088 37.5011 9.288C37.6131 9.48 37.6691 9.72 37.6691 10.008C37.6691 10.416 37.5851 10.76 37.4171 11.04C37.2571 11.312 37.0451 11.532 36.7811 11.7C36.5171 11.868 36.2131 11.984 35.8691 12.048C35.5331 12.12 35.1891 12.156 34.8371 12.156C34.4771 12.156 34.1251 12.12 33.7811 12.048C33.4371 11.976 33.1291 11.856 32.8571 11.688C32.5931 11.52 32.3731 11.3 32.1971 11.028C32.0291 10.748 31.9371 10.4 31.9211 9.984H33.5411Z" fill="white" fill-opacity="0.9"/>
</svg>
